<svg width="100" height="114" viewBox="0 0 100 114" fill="none" xmlns="http://www.w3.org/2000/svg">
<circle cx="50" cy="51" r="50" fill="#F2CC8F"/>
<path d="M40.9 65.2C37.7667 65.2 35.4 64.0667 33.8 61.8C32.2667 59.4667 31.5 56.2333 31.5 52.1C31.5 47.3667 32.6667 43.2 35 39.6C37.3333 36 40.9 33.0333 45.7 30.7L48.9 37.1C45.9 38.6333 43.6333 40.4 42.1 42.4C40.6333 44.3333 39.9 46.8 39.9 49.8C40.1 49.7333 40.4333 49.7 40.9 49.7C43.0333 49.7 44.8333 50.3667 46.3 51.7C47.8333 52.9667 48.6 54.7333 48.6 57C48.6 59.5333 47.8667 61.5333 46.4 63C44.9333 64.4667 43.1 65.2 40.9 65.2ZM64.5 65.2C61.3667 65.2 59 64.0667 57.4 61.8C55.8667 59.4667 55.1 56.2333 55.1 52.1C55.1 47.3667 56.2667 43.2 58.6 39.6C60.9333 36 64.5 33.0333 69.3 30.7L72.5 37.1C69.5 38.6333 67.2333 40.4 65.7 42.4C64.2333 44.3333 63.5 46.8 63.5 49.8C63.7 49.7333 64.0333 49.7 64.5 49.7C66.6333 49.7 68.4333 50.3667 69.9 51.7C71.4333 52.9667 72.2 54.7333 72.2 57C72.2 59.5333 71.4667 61.5333 70 63C68.5333 64.4667 66.7 65.2 64.5 65.2Z" fill="white"/>
</svg>
