<svg width="40" height="40" viewBox="0 0 40 40" fill="none" xmlns="http://www.w3.org/2000/svg">
<circle cx="20" cy="20" r="19.5" stroke="#E5E5E5" stroke-opacity="0.2"/>
<path d="M13.7754 15.897C14.9334 15.897 15.8722 14.9583 15.8722 13.8002C15.8722 12.6422 14.9334 11.7034 13.7754 11.7034C12.6173 11.7034 11.6785 12.6422 11.6785 13.8002C11.6785 14.9583 12.6173 15.897 13.7754 15.897Z" fill="#E5E5E5" fill-opacity="0.7"/>
<path d="M17.8521 17.486V29.1192H21.4641V23.3663C21.4641 21.8483 21.7497 20.3782 23.6319 20.3782C25.4881 20.3782 25.5111 22.1138 25.5111 23.4622V29.1202H29.125V22.7405C29.125 19.6068 28.4504 17.1985 24.7876 17.1985C23.0291 17.1985 21.8503 18.1635 21.3683 19.0768H21.3194V17.486H17.8521ZM11.9661 17.486H15.5838V29.1192H11.9661V17.486Z" fill="#E5E5E5" fill-opacity="0.7"/>
</svg>
