<svg width="40" height="40" viewBox="0 0 40 40" fill="none" xmlns="http://www.w3.org/2000/svg">
<circle cx="20" cy="20" r="19.5" stroke="#E5E5E5" stroke-opacity="0.2"/>
<path d="M17.5675 26.9256C18.7816 26.9333 19.9851 26.6998 21.1082 26.2387C22.2313 25.7776 23.2517 25.0981 24.1102 24.2396C24.9687 23.3811 25.6482 22.3607 26.1093 21.2376C26.5704 20.1145 26.8039 18.911 26.7963 17.6969V17.2728C27.4256 16.8117 27.9703 16.2451 28.4062 15.5981C27.8137 15.8573 27.1866 16.0292 26.5447 16.1084C27.2253 15.7029 27.7359 15.0646 27.9822 14.3116C27.3479 14.6921 26.6524 14.9596 25.9266 15.1022C25.4378 14.5814 24.7909 14.2361 24.0862 14.1199C23.3814 14.0037 22.658 14.123 22.0279 14.4594C21.3977 14.7957 20.896 15.3304 20.6003 15.9806C20.3047 16.6308 20.2315 17.3603 20.3922 18.0563C19.1028 17.993 17.8411 17.6588 16.6894 17.0755C15.5378 16.4923 14.5218 15.6729 13.7078 14.6709C13.2974 15.3834 13.1729 16.2251 13.3598 17.0258C13.5466 17.8265 14.0307 18.5263 14.7141 18.9834C14.2099 18.964 13.7175 18.8261 13.2766 18.5809V18.6169C13.2721 19.3614 13.5229 20.0849 13.9872 20.667C14.4515 21.249 15.1012 21.6543 15.8281 21.8153C15.3592 21.9414 14.8681 21.9611 14.3906 21.8728C14.6011 22.5078 15.0028 23.062 15.5407 23.4597C16.0785 23.8573 16.7263 24.0788 17.395 24.0938C16.2516 25.0141 14.8306 25.5208 13.3628 25.5313C13.1055 25.5238 12.8487 25.5022 12.5938 25.4666C14.0794 26.4131 15.806 26.9121 17.5675 26.9041" fill="#E5E5E5" fill-opacity="0.7"/>
</svg>
